<svg width="34" height="54" viewBox="0 0 34 54" fill="none" xmlns="http://www.w3.org/2000/svg">
<path d="M10.1572 35.3393V51.2368" stroke="#574925" stroke-width="3"/>
<path d="M24.5259 35.3393V51.2368" stroke="#574925" stroke-width="3"/>
<path fill-rule="evenodd" clip-rule="evenodd" d="M32.4459 26.8927C32.0058 34.8701 25.3977 41.2033 17.3103 41.2033C8.93825 41.2033 2.15137 34.4164 2.15137 26.0444C2.15137 25.1254 2.23313 24.2256 2.38979 23.3517C3.52958 14.6671 8.92568 2.08859 17.0618 2.08859C24.5885 2.08859 30.1036 13.591 31.8613 21.7805C32.257 23.133 32.4692 24.5639 32.4692 26.0444C32.4692 26.2541 32.465 26.4629 32.4565 26.6706C32.455 26.7453 32.4515 26.8193 32.4459 26.8927Z" fill="#8C9E59"/>
<path d="M32.4459 26.8927L30.9502 26.7788L30.949 26.7944L30.9482 26.8101L32.4459 26.8927ZM2.38979 23.3517L3.86625 23.6164L3.87246 23.5818L3.87704 23.5469L2.38979 23.3517ZM31.8613 21.7805L30.3947 22.0953L30.4062 22.1489L30.4217 22.2017L31.8613 21.7805ZM32.4565 26.6706L30.9578 26.6097L30.9571 26.6252L30.9568 26.6407L32.4565 26.6706ZM30.9482 26.8101C30.5517 33.9968 24.5969 39.7033 17.3103 39.7033V42.7033C26.1984 42.7033 33.4599 35.7435 33.9436 26.9754L30.9482 26.8101ZM17.3103 39.7033C9.76668 39.7033 3.65137 33.588 3.65137 26.0444H0.651367C0.651367 35.2449 8.10982 42.7033 17.3103 42.7033V39.7033ZM3.65137 26.0444C3.65137 25.2146 3.72519 24.4033 3.86625 23.6164L0.913328 23.087C0.741083 24.0479 0.651367 25.0363 0.651367 26.0444H3.65137ZM3.87704 23.5469C4.42427 19.3773 6.00124 14.2608 8.39238 10.2285C10.8291 6.11934 13.8217 3.58859 17.0618 3.58859V0.588593C12.1657 0.588593 8.39225 4.34708 5.81196 8.69832C3.18608 13.1265 1.4951 18.6415 0.902545 23.1565L3.87704 23.5469ZM17.0618 3.58859C20.0277 3.58859 22.8968 5.8874 25.3679 9.68204C27.7884 13.3988 29.5464 18.1428 30.3947 22.0953L33.3279 21.4657C32.4185 17.2286 30.5401 12.1267 27.8819 8.04491C25.2744 4.04098 21.6226 0.588593 17.0618 0.588593V3.58859ZM30.4217 22.2017C30.7777 23.4188 30.9692 24.7079 30.9692 26.0444H33.9692C33.9692 24.4199 33.7363 22.8473 33.301 21.3593L30.4217 22.2017ZM30.9692 26.0444C30.9692 26.2338 30.9654 26.4223 30.9578 26.6097L33.9553 26.7315C33.9646 26.5035 33.9692 26.2745 33.9692 26.0444H30.9692ZM30.9568 26.6407C30.9559 26.6875 30.9537 26.7335 30.9502 26.7788L33.9416 27.0067C33.9493 26.9051 33.9542 26.803 33.9562 26.7005L30.9568 26.6407Z" fill="#574925"/>
<circle cx="17.3102" cy="26.7225" r="8.61679" fill="#574925"/>
<path d="M17.3101 21.7777C20.1949 21.7777 22.0193 23.7086 22.4903 26.7225" stroke="#B3BE93" stroke-width="3" stroke-linecap="round"/>
<ellipse cx="26.2705" cy="51.2368" rx="4.7964" ry="2.3727" fill="#574925"/>
<ellipse cx="11.4569" cy="51.2368" rx="4.79675" ry="2.3727" fill="#574925"/>
</svg>
