<svg xmlns="http://www.w3.org/2000/svg" width="30" height="48" fill="none" viewBox="0 0 30 48"><path stroke="#574925" stroke-width="3" d="M11.5308 33.9743V45.5062"/><path stroke="#574925" stroke-width="3" d="M21.9531 33.9743V45.5062"/><path fill="#C6B065" d="M27.7154 27.2319C27.7154 27.2319 17.8218 26.0858 17.4169 27.2319C16.967 28.5051 25.1062 34.3438 25.1062 34.3438C23.0892 36.7201 20.0803 38.228 16.7193 38.228C10.6463 38.228 5.72314 33.3049 5.72314 27.2319C5.72314 21.1589 10.6463 16.2358 16.7193 16.2358C22.7923 16.2358 27.7154 21.1589 27.7154 27.2319Z"/><path fill="#574925" d="M27.7154 27.2319L27.5428 28.7219L29.2154 28.9157V27.2319H27.7154ZM25.1062 34.3438L26.2498 35.3145L27.303 34.0737L25.9805 33.125L25.1062 34.3438ZM17.4169 27.2319L16.0025 26.7322L17.4169 27.2319ZM16.7193 36.728C11.4747 36.728 7.22314 32.4765 7.22314 27.2319H4.22314C4.22314 34.1333 9.81785 39.728 16.7193 39.728V36.728ZM7.22314 27.2319C7.22314 21.9873 11.4747 17.7358 16.7193 17.7358V14.7358C9.81785 14.7358 4.22314 20.3305 4.22314 27.2319H7.22314ZM16.7193 17.7358C21.9638 17.7358 26.2154 21.9873 26.2154 27.2319H29.2154C29.2154 20.3305 23.6207 14.7358 16.7193 14.7358V17.7358ZM23.9626 33.3731C22.2184 35.428 19.6214 36.728 16.7193 36.728V39.728C20.5392 39.728 23.9599 38.0122 26.2498 35.3145L23.9626 33.3731ZM27.7154 27.2319C27.888 25.7419 27.8879 25.7418 27.8877 25.7418C27.8876 25.7418 27.8874 25.7418 27.8872 25.7418C27.8868 25.7417 27.8862 25.7416 27.8855 25.7416C27.8841 25.7414 27.882 25.7412 27.8794 25.7409C27.8742 25.7403 27.8666 25.7394 27.8568 25.7383C27.837 25.736 27.8082 25.7328 27.7709 25.7286C27.6962 25.7202 27.5875 25.7082 27.4494 25.6934C27.1734 25.6638 26.7797 25.623 26.3064 25.5776C25.3614 25.487 24.0912 25.3776 22.803 25.3045C21.5261 25.2321 20.1847 25.1922 19.1151 25.2506C18.5899 25.2793 18.0569 25.3349 17.6073 25.4488C17.3853 25.505 17.1116 25.5928 16.8505 25.7433C16.6044 25.8851 16.1965 26.1831 16.0025 26.7322L18.8312 27.7316C18.6878 28.1374 18.4047 28.3101 18.3481 28.3428C18.2763 28.3841 18.2567 28.379 18.344 28.3569C18.513 28.3141 18.8193 28.2712 19.2786 28.2462C20.1779 28.1971 21.3858 28.2289 22.633 28.2997C23.8687 28.3698 25.0972 28.4754 26.02 28.5639C26.4805 28.608 26.8629 28.6477 27.1295 28.6763C27.2628 28.6906 27.367 28.7021 27.4375 28.71C27.4727 28.7139 27.4995 28.717 27.5173 28.719C27.5261 28.72 27.5327 28.7208 27.537 28.7213C27.5392 28.7215 27.5407 28.7217 27.5417 28.7218C27.5422 28.7219 27.5425 28.7219 27.5427 28.7219C27.5428 28.7219 27.5428 28.7219 27.5429 28.7219C27.5428 28.7219 27.5428 28.7219 27.7154 27.2319ZM16.0025 26.7322C15.8257 27.2328 15.9105 27.6885 15.9962 27.9653C16.0855 28.2536 16.2246 28.5076 16.3534 28.7095C16.6121 29.1153 16.973 29.5314 17.3483 29.9209C18.1107 30.7124 19.1408 31.6063 20.143 32.4262C21.1542 33.2536 22.1755 34.0369 22.9412 34.6114C23.3248 34.8993 23.646 35.136 23.8718 35.3012C23.9847 35.3838 24.074 35.4486 24.1353 35.493C24.166 35.5152 24.1897 35.5323 24.206 35.544C24.2141 35.5499 24.2204 35.5544 24.2247 35.5575C24.2269 35.5591 24.2286 35.5603 24.2297 35.5611C24.2303 35.5616 24.2308 35.5619 24.2312 35.5621C24.2313 35.5623 24.2315 35.5624 24.2316 35.5625C24.2317 35.5626 24.2318 35.5626 25.1062 34.3438C25.9805 33.125 25.9806 33.125 25.9806 33.125C25.9805 33.125 25.9805 33.125 25.9805 33.1249C25.9803 33.1248 25.9801 33.1246 25.9797 33.1244C25.9789 33.1238 25.9776 33.1229 25.9759 33.1216C25.9724 33.1191 25.967 33.1153 25.9597 33.11C25.9452 33.0996 25.9233 33.0837 25.8945 33.0629C25.8368 33.0211 25.7516 32.9593 25.6429 32.8797C25.4254 32.7206 25.1142 32.4913 24.7417 32.2118C23.9954 31.6518 23.01 30.8958 22.0427 30.1044C21.0663 29.3055 20.146 28.501 19.5088 27.8396C19.1843 27.5027 18.9831 27.2538 18.8829 27.0965C18.8321 27.017 18.8425 27.015 18.862 27.0778C18.8779 27.1293 18.9518 27.3901 18.8312 27.7316L16.0025 26.7322Z"/><ellipse cx="23.219" cy="45.506" fill="#574925" rx="3.479" ry="1.721"/><ellipse cx="12.473" cy="45.506" fill="#574925" rx="3.48" ry="1.721"/><mask id="path-7-inside-1" fill="#fff"><path fill-rule="evenodd" d="M14.4391 3.52723C13.7929 1.52398 11.9131 0.0748138 9.69479 0.0748138C6.94215 0.0748138 4.71069 2.30627 4.71069 5.05891C4.71069 5.08269 4.71086 5.10644 4.71119 5.13014C2.3606 5.53116 0.571289 7.57814 0.571289 10.043C0.571289 12.7957 2.80274 15.0271 5.55538 15.0271C5.93947 15.0271 6.3134 14.9837 6.67255 14.9014L8.03553 18.8732L18.7578 15.1937L17.9493 12.8376C19.9919 12.215 21.478 10.3157 21.478 8.06941C21.478 5.31677 19.2465 3.08531 16.4939 3.08531C15.7613 3.08531 15.0656 3.24337 14.4391 3.52723Z" clip-rule="evenodd"/></mask><path fill="#fff" fill-rule="evenodd" d="M14.4391 3.52723C13.7929 1.52398 11.9131 0.0748138 9.69479 0.0748138C6.94215 0.0748138 4.71069 2.30627 4.71069 5.05891C4.71069 5.08269 4.71086 5.10644 4.71119 5.13014C2.3606 5.53116 0.571289 7.57814 0.571289 10.043C0.571289 12.7957 2.80274 15.0271 5.55538 15.0271C5.93947 15.0271 6.3134 14.9837 6.67255 14.9014L8.03553 18.8732L18.7578 15.1937L17.9493 12.8376C19.9919 12.215 21.478 10.3157 21.478 8.06941C21.478 5.31677 19.2465 3.08531 16.4939 3.08531C15.7613 3.08531 15.0656 3.24337 14.4391 3.52723Z" clip-rule="evenodd"/><path fill="#574925" d="M14.4391 3.52723L12.5357 4.14127L13.2236 6.27367L15.2645 5.34896L14.4391 3.52723ZM4.71119 5.13014L5.04754 7.10166L6.73496 6.81378L6.711 5.10214L4.71119 5.13014ZM6.67255 14.9014L8.56426 14.2523L7.98017 12.5502L6.2261 12.9519L6.67255 14.9014ZM8.03553 18.8732L6.14382 19.5224L6.793 21.4141L8.68471 20.7649L8.03553 18.8732ZM18.7578 15.1937L19.407 17.0854L21.2987 16.4362L20.6495 14.5445L18.7578 15.1937ZM17.9493 12.8376L17.3661 10.9246L15.3855 11.5283L16.0576 13.4868L17.9493 12.8376ZM16.3425 2.91319C15.4376 0.108087 12.8062 -1.92519 9.69479 -1.92519V2.07481C11.0199 2.07481 12.1481 2.93987 12.5357 4.14127L16.3425 2.91319ZM9.69479 -1.92519C5.83758 -1.92519 2.71069 1.2017 2.71069 5.05891H6.71069C6.71069 3.41084 8.04672 2.07481 9.69479 2.07481V-1.92519ZM2.71069 5.05891C2.71069 5.09205 2.71093 5.12513 2.71139 5.15814L6.711 5.10214C6.71079 5.08775 6.71069 5.07334 6.71069 5.05891H2.71069ZM4.37484 3.15863C1.07955 3.72082 -1.42871 6.58702 -1.42871 10.043H2.57129C2.57129 8.56926 3.64166 7.34151 5.04754 7.10166L4.37484 3.15863ZM-1.42871 10.043C-1.42871 13.9002 1.69817 17.0271 5.55538 17.0271V13.0271C3.90731 13.0271 2.57129 11.6911 2.57129 10.043H-1.42871ZM5.55538 17.0271C6.09074 17.0271 6.61442 16.9665 7.11899 16.851L6.2261 12.9519C6.01239 13.0008 5.78819 13.0271 5.55538 13.0271V17.0271ZM4.78084 15.5506L6.14382 19.5224L9.92724 18.224L8.56426 14.2523L4.78084 15.5506ZM8.68471 20.7649L19.407 17.0854L18.1086 13.3019L7.38635 16.9815L8.68471 20.7649ZM20.6495 14.5445L19.841 12.1885L16.0576 13.4868L16.8661 15.8428L20.6495 14.5445ZM19.478 8.06941C19.478 9.41134 18.5906 10.5513 17.3661 10.9246L18.5325 14.7507C21.3932 13.8787 23.478 11.2201 23.478 8.06941H19.478ZM16.4939 5.08531C18.1419 5.08531 19.478 6.42134 19.478 8.06941H23.478C23.478 4.2122 20.3511 1.08531 16.4939 1.08531V5.08531ZM15.2645 5.34896C15.6369 5.18025 16.0516 5.08531 16.4939 5.08531V1.08531C15.471 1.08531 14.4944 1.30648 13.6137 1.7055L15.2645 5.34896Z" mask="url(#path-7-inside-1)"/></svg>