<svg xmlns="http://www.w3.org/2000/svg" width="26" height="46" fill="none" viewBox="0 0 26 46"><path stroke="#8C9E59" stroke-linecap="round" stroke-width="2" d="M13.8859 12.0755C5.73657 3.68727 15.2734 -1.22124 15.2734 3.68721C15.2734 7.2391 6.05508 6.90208 4.68471 5.37049"/><path stroke="#574925" stroke-width="3" d="M7.06445 31.8773V43.4092"/><path stroke="#574925" stroke-width="3" d="M17.4868 31.8773V43.4092"/><ellipse cx="18.753" cy="43.409" fill="#574925" rx="3.479" ry="1.721"/><ellipse cx="8.007" cy="43.409" fill="#574925" rx="3.48" ry="1.721"/><path fill="#8A74B8" stroke="#574925" stroke-width="3" d="M23.5282 24.0549C23.5282 31.1762 18.4519 36.6302 12.5602 36.6302C6.6686 36.6302 1.59229 31.1762 1.59229 24.0549C1.59229 16.9336 6.6686 11.4796 12.5602 11.4796C18.4519 11.4796 23.5282 16.9336 23.5282 24.0549Z"/><path stroke="#fff" stroke-linecap="round" stroke-width="3" d="M7.06396 20.9376C7.42335 19.2529 8.92377 15.9241 12.0504 16.0859"/></svg>