<svg width="26" height="46" viewBox="0 0 26 46" fill="none" xmlns="http://www.w3.org/2000/svg">
<path d="M13.8859 12.0755C5.73657 3.68727 15.2734 -1.22124 15.2734 3.68721C15.2734 7.2391 6.05508 6.90208 4.68471 5.37049" stroke="#8C9E59" stroke-width="2" stroke-linecap="round"/>
<path d="M7.06445 31.8773V43.4092" stroke="#574925" stroke-width="3"/>
<path d="M17.4868 31.8773V43.4092" stroke="#574925" stroke-width="3"/>
<ellipse cx="18.7527" cy="43.4092" rx="3.47926" ry="1.72113" fill="#574925"/>
<ellipse cx="8.00686" cy="43.4092" rx="3.47951" ry="1.72113" fill="#574925"/>
<path d="M23.5282 24.0549C23.5282 31.1762 18.4519 36.6302 12.5602 36.6302C6.6686 36.6302 1.59229 31.1762 1.59229 24.0549C1.59229 16.9336 6.6686 11.4796 12.5602 11.4796C18.4519 11.4796 23.5282 16.9336 23.5282 24.0549Z" fill="#8A74B8" stroke="#574925" stroke-width="3"/>
<path d="M7.06396 20.9376C7.42335 19.2529 8.92377 15.9241 12.0504 16.0859" stroke="white" stroke-width="3" stroke-linecap="round"/>
</svg>
