<svg xmlns="http://www.w3.org/2000/svg" width="448" height="449" fill="none" viewBox="0 0 448 449"><path fill="#574925" d="M224.1 110C160.5 110 109.2 161.3 109.2 224.9C109.2 288.5 160.5 339.8 224.1 339.8C287.7 339.8 339 288.5 339 224.9C339 161.3 287.7 110 224.1 110ZM224.1 299.6C183 299.6 149.4 266.1 149.4 224.9C149.4 183.7 182.9 150.2 224.1 150.2C265.3 150.2 298.8 183.7 298.8 224.9C298.8 266.1 265.2 299.6 224.1 299.6V299.6ZM370.5 105.3C370.5 120.2 358.5 132.1 343.7 132.1C328.8 132.1 316.9 120.1 316.9 105.3C316.9 90.4999 328.9 78.4999 343.7 78.4999C358.5 78.4999 370.5 90.4999 370.5 105.3ZM446.6 132.5C444.9 96.6 436.7 64.7999 410.4 38.5999C384.2 12.3999 352.4 4.19995 316.5 2.39995C279.5 0.299951 168.6 0.299951 131.6 2.39995C95.7998 4.09995 63.9998 12.2999 37.6998 38.5C11.3998 64.7 3.2998 96.4999 1.4998 132.4C-0.600195 169.4 -0.600195 280.3 1.4998 317.3C3.1998 353.2 11.3998 385 37.6998 411.2C63.9998 437.4 95.6998 445.6 131.6 447.4C168.6 449.5 279.5 449.5 316.5 447.4C352.4 445.7 384.2 437.5 410.4 411.2C436.6 385 444.8 353.2 446.6 317.3C448.7 280.3 448.7 169.5 446.6 132.5V132.5ZM398.8 357C391 376.6 375.9 391.7 356.2 399.6C326.7 411.3 256.7 408.6 224.1 408.6C191.5 408.6 121.4 411.2 91.9998 399.6C72.3998 391.8 57.2998 376.7 49.3998 357C37.6998 327.5 40.3998 257.5 40.3998 224.9C40.3998 192.3 37.7998 122.2 49.3998 92.7999C57.1998 73.1999 72.2998 58.0999 91.9998 50.1999C121.5 38.4999 191.5 41.1999 224.1 41.1999C256.7 41.1999 326.8 38.5999 356.2 50.1999C375.8 57.9999 390.9 73.0999 398.8 92.7999C410.5 122.3 407.8 192.3 407.8 224.9C407.8 257.5 410.5 327.6 398.8 357Z"/></svg>