<svg xmlns="http://www.w3.org/2000/svg" width="27" height="46" fill="none" viewBox="0 0 27 46"><path stroke="#8C9E59" stroke-linecap="round" d="M9.0821 7.06066C3.56884 2.64499 8.91603 -1.01224 9.28431 1.92941C9.5508 4.05807 4.00093 4.54774 3.06475 3.73267"/><path stroke="#574925" stroke-width="2" d="M6.47949 19.4397L7.91843 28.8569"/><path stroke="#574925" stroke-width="2" d="M12.7256 18.6577L13.5908 25.5688"/><ellipse cx="14.35" cy="25.474" fill="#574925" rx="2.101" ry="1.04" transform="rotate(-7.136 14.3495 25.4739)"/><ellipse cx="8.436" cy="28.362" fill="#574925" rx="2.102" ry="1.04" transform="rotate(-7.136 8.43561 28.3622)"/><path fill="#8A74B8" stroke="#574925" stroke-width="2" d="M15.6662 13.5281C16.1954 17.7554 13.5872 21.3482 10.1182 21.7825C6.64915 22.2168 3.23575 19.3779 2.70652 15.1506C2.17729 10.9234 4.78547 7.33057 8.25451 6.89627C11.7235 6.46196 15.1369 9.30091 15.6662 13.5281Z"/><path stroke="#fff" stroke-linecap="round" stroke-width="2" d="M5.72675 13.4262C5.81574 12.3896 6.46518 10.2821 8.35109 10.1444"/><rect width="4.35" height="25.463" x="20.732" y="8.445" fill="#3D3D3D" transform="rotate(5.64441 20.7324 8.44472)"/><circle cx="15.383" cy="34.608" r="11.384" fill="#000"/><circle cx="15.383" cy="34.608" r="8.436" fill="#3D3D3D"/><circle cx="23.159" cy="8.67" r="3.609" fill="#3D3D3D"/></svg>