<svg xmlns="http://www.w3.org/2000/svg" width="576" height="370" fill="none" viewBox="0 0 576 370"><path fill="#574925" d="M195.11 214.18C195.11 224.279 192.115 234.152 186.504 242.549C180.893 250.945 172.918 257.49 163.588 261.354C154.257 265.219 143.99 266.229 134.085 264.258C124.18 262.287 115.082 257.423 107.942 250.281C100.801 243.14 95.9389 234.041 93.9699 224.135C92.0009 214.23 93.0134 203.963 96.8796 194.633C100.746 185.303 107.292 177.33 115.69 171.72C124.088 166.111 133.961 163.118 144.06 163.12C150.767 163.113 157.409 164.43 163.606 166.994C169.803 169.557 175.434 173.318 180.176 178.061C184.918 182.804 188.678 188.435 191.24 194.633C193.803 200.831 195.118 207.473 195.11 214.18V214.18ZM431.88 163.12C421.781 163.12 411.909 166.115 403.513 171.725C395.116 177.336 388.571 185.31 384.707 194.64C380.842 203.97 379.831 214.237 381.801 224.141C383.771 234.046 388.634 243.144 395.775 250.285C402.916 257.426 412.014 262.289 421.919 264.259C431.823 266.229 442.09 265.218 451.42 261.353C460.75 257.489 468.724 250.944 474.335 242.547C479.945 234.151 482.94 224.279 482.94 214.18C482.94 200.638 477.56 187.651 467.985 178.075C458.409 168.5 445.422 163.12 431.88 163.12ZM575.88 214.18C575.879 242.181 567.711 269.575 552.376 293.004C537.042 316.433 515.206 334.88 489.545 346.086C463.884 357.293 435.511 360.771 407.903 356.095C380.295 351.419 354.65 338.791 334.11 319.76L288 369.93L241.86 319.73C213.759 345.558 176.549 359.165 138.415 357.558C100.281 355.951 64.3481 339.261 38.52 311.16C12.6919 283.059 -0.91528 245.849 0.691907 207.715C2.29909 169.581 18.989 133.648 47.09 107.82L0 56.58H104.66C158.768 19.7499 222.707 0.0539551 288.16 0.0539551C353.613 0.0539551 417.552 19.7499 471.66 56.58H576L528.91 107.82C543.718 121.295 555.544 137.719 563.628 156.036C571.712 174.353 575.875 194.158 575.85 214.18H575.88ZM241.45 214.18C241.45 194.918 235.738 176.089 225.037 160.073C214.335 144.057 199.125 131.575 181.33 124.203C163.534 116.832 143.952 114.904 125.06 118.661C106.168 122.419 88.8151 131.695 75.1949 145.315C61.5746 158.935 52.2991 176.288 48.5413 195.18C44.7835 214.072 46.7122 233.654 54.0834 251.45C61.4546 269.245 73.9373 284.456 89.953 295.157C105.969 305.858 124.798 311.57 144.06 311.57C169.889 311.57 194.661 301.309 212.925 283.045C231.189 264.781 241.45 240.009 241.45 214.18V214.18ZM396.08 68.78C361.832 54.5089 325.097 47.1613 287.995 47.1613C250.893 47.1613 214.158 54.5089 179.91 68.78C241.38 92.29 288 147.28 288 211.37C288 147.29 334.61 92.3 396.08 68.78V68.78ZM529.28 214.18C529.282 194.916 523.571 176.083 512.87 160.065C502.169 144.046 486.958 131.561 469.16 124.187C451.363 116.814 431.779 114.883 412.884 118.64C393.99 122.397 376.634 131.673 363.011 145.294C349.389 158.916 340.111 176.271 336.352 195.165C332.593 214.059 334.522 233.643 341.893 251.441C349.265 269.239 361.749 284.452 377.766 295.154C393.784 305.857 412.616 311.57 431.88 311.57C457.71 311.57 482.483 301.31 500.749 283.046C519.014 264.782 529.277 240.01 529.28 214.18"/></svg>