<svg xmlns="http://www.w3.org/2000/svg" width="382" height="512" fill="none" viewBox="0 0 382 512"><path fill="#574925" d="M41.8998 240.32L141.52 288.93C160.72 298.33 157.72 326.44 137.02 331.64L29.4998 358.45C26.3436 359.244 23.054 359.352 19.8523 358.768C16.6506 358.184 13.6111 356.921 10.9384 355.064C8.26569 353.207 6.02169 350.799 4.3574 348.002C2.69311 345.206 1.64713 342.085 1.28984 338.85C-2.00932 310.094 1.06342 280.965 10.2898 253.53C11.3249 250.457 13.0034 247.641 15.2133 245.268C17.4233 242.896 20.1138 241.022 23.1054 239.772C26.097 238.521 29.3208 237.924 32.5618 238.018C35.8027 238.113 38.9862 238.898 41.8998 240.32V240.32ZM85.8998 479.57C109.735 495.899 136.833 506.855 165.32 511.68C168.526 512.23 171.812 512.087 174.958 511.262C178.104 510.436 181.036 508.945 183.558 506.891C186.08 504.838 188.133 502.267 189.579 499.354C191.025 496.44 191.83 493.251 191.94 490L195.84 379.18C196.54 357.88 170.34 347.27 156.03 363.08L81.8198 445.48C79.6467 447.898 78.0154 450.752 77.0349 453.852C76.0545 456.951 75.7476 460.225 76.1348 463.452C76.5221 466.68 77.5946 469.788 79.2804 472.568C80.9662 475.347 83.2265 477.735 85.9098 479.57H85.8998ZM231.24 369.65L290.05 463.65C291.783 466.41 294.085 468.769 296.802 470.569C299.519 472.369 302.589 473.57 305.806 474.09C309.023 474.61 312.315 474.439 315.461 473.587C318.606 472.735 321.535 471.223 324.05 469.15C346.338 450.725 364.328 427.649 376.76 401.54C378.13 398.6 378.862 395.404 378.91 392.161C378.957 388.918 378.318 385.702 377.035 382.724C375.752 379.745 373.853 377.072 371.463 374.879C369.074 372.686 366.247 371.023 363.17 370L257.75 335.74C237.44 329.24 219.94 351.54 231.24 369.65ZM379.57 237.42C368.044 210.904 350.835 187.244 329.16 168.11C326.721 165.973 323.855 164.379 320.753 163.434C317.65 162.49 314.382 162.217 311.166 162.633C307.95 163.049 304.86 164.145 302.1 165.848C299.34 167.551 296.974 169.822 295.16 172.51L233.16 264.43C221.26 282.13 237.86 305.04 258.36 299.14L365 268.63C368.125 267.71 371.02 266.137 373.492 264.014C375.963 261.891 377.956 259.268 379.337 256.317C380.718 253.366 381.457 250.156 381.504 246.898C381.551 243.64 380.905 240.409 379.61 237.42H379.57ZM61.1098 30.18C58.2772 31.5434 55.7562 33.4763 53.7043 35.858C51.6525 38.2396 50.114 41.0189 49.1848 44.0222C48.2557 47.0254 47.956 50.1879 48.3044 53.3122C48.6529 56.4365 49.6419 59.4553 51.2098 62.18L155.33 242.62C167.03 262.82 197.94 254.52 197.94 231.22V22.88C197.968 19.7316 197.34 16.6118 196.096 13.7194C194.852 10.827 193.02 8.22542 190.715 6.08045C188.41 3.93549 185.683 2.29417 182.709 1.26107C179.735 0.227969 176.578 -0.174249 173.44 0.0800406C134.474 3.17657 96.4034 13.3779 61.1098 30.18V30.18Z"/></svg>